<svg xmlns="http://www.w3.org/2000/svg" xmlns:xlink="http://www.w3.org/1999/xlink" width="500" zoomAndPan="magnify" viewBox="0 0 375 374.999991" height="500" preserveAspectRatio="xMidYMid meet" version="1.0"><defs><g/><clipPath id="854abc19ac"><path d="M 50 170 L 365.300781 170 L 365.300781 256 L 50 256 Z M 50 170 " clip-rule="nonzero"/></clipPath><clipPath id="cc83492e3b"><path d="M 66 243 L 349 243 L 349 257.695312 L 66 257.695312 Z M 66 243 " clip-rule="nonzero"/></clipPath><clipPath id="2d1cf628a6"><path d="M 9.800781 88 L 147 88 L 147 246 L 9.800781 246 Z M 9.800781 88 " clip-rule="nonzero"/></clipPath></defs><path fill="#ffb532" d="M 209.066406 97.242188 C 195.761719 97.242188 182.929688 99.226562 170.945312 103 C 166.417969 104.414062 211.519531 106.304688 207.277344 108.1875 C 204.257812 109.414062 151.886719 110.640625 149.046875 112.246094 C 134.988281 119.789062 122.441406 129.890625 112.15625 141.96875 C 110.457031 144.042969 204.820312 149.707031 203.214844 151.875 C 200.390625 155.648438 101.777344 155.933594 99.417969 159.902344 C 97.902344 162.539062 96.5 165.085938 95.171875 167.734375 C 94.230469 169.523438 124.894531 171.792969 124.046875 173.582031 C 123.199219 175.75 90.835938 177.355469 89.980469 179.523438 C 84.792969 193.398438 81.863281 208.589844 81.863281 224.347656 C 81.863281 231.136719 82.425781 237.84375 83.46875 244.355469 L 134.234375 187.546875 C 138.097656 183.296875 144.519531 183.296875 148.382812 187.546875 L 160.367188 201.035156 L 195.753906 161.496094 C 199.621094 157.253906 206.039062 157.253906 209.914062 161.496094 L 222.738281 175.84375 L 226.519531 171.597656 C 230.386719 167.355469 236.804688 167.355469 240.671875 171.597656 L 260.957031 194.246094 L 267 187.546875 C 270.78125 183.296875 277.191406 183.296875 281.066406 187.546875 L 334.195312 246.902344 C 335.789062 236.332031 337.210938 213.121094 332.589844 194.246094 C 331.925781 191.414062 331.546875 190 330.707031 187.261719 C 330.140625 185.566406 300.789062 183.867188 300.226562 182.167969 C 299.664062 180.664062 327.402344 177.734375 326.839844 176.21875 C 319.949219 159.523438 309.664062 144.515625 296.738281 132.246094 C 293.25 128.941406 250.410156 125.546875 246.628906 122.621094 C 243.234375 120.078125 278.804688 118 275.226562 115.730469 C 255.871094 103.941406 233.21875 97.242188 209.066406 97.242188 Z M 209.066406 97.242188 " fill-opacity="1" fill-rule="evenodd"/><path fill="#ffe100" d="M 86.105469 236.617188 C 85.726562 232.558594 85.441406 228.5 85.441406 224.347656 C 85.441406 209.910156 87.988281 195.65625 92.894531 182.070312 C 99.878906 180.371094 136.402344 180.085938 136.492188 174.144531 C 136.59375 168.765625 115.542969 165.554688 111.484375 164.894531 C 120.164062 162.722656 161.410156 162.152344 193.394531 159.421875 L 160.367188 196.222656 L 150.746094 185.464844 C 145.644531 179.800781 137.058594 179.800781 131.871094 185.464844 Z M 86.105469 236.617188 " fill-opacity="1" fill-rule="evenodd"/><path fill="#ffe100" d="M 283.519531 185.65625 C 298.050781 187.824219 327.589844 189.339844 328.34375 192.261719 C 330.707031 203.582031 332.117188 222.835938 331.363281 239.0625 Z M 283.519531 185.65625 " fill-opacity="1" fill-rule="evenodd"/><path fill="#ffe100" d="M 265.964844 114.699219 C 260.394531 115.546875 213.308594 117.621094 213.21875 123.664062 C 213.117188 132.34375 286.34375 130.933594 294.371094 134.992188 C 305.597656 145.75 314.757812 158.488281 321.261719 172.546875 C 322.300781 174.816406 287.765625 178.96875 278.140625 181.890625 C 273.519531 180.285156 268.234375 181.515625 264.644531 185.480469 L 260.964844 189.539062 L 243.039062 169.53125 C 237.855469 163.773438 229.257812 163.773438 224.167969 169.53125 L 222.746094 171.136719 L 212.277344 159.4375 C 211.621094 158.773438 211.046875 158.117188 210.300781 157.640625 C 223.324219 155.847656 232.285156 153.394531 232.375 149.898438 C 232.65625 143.101562 131.214844 141.496094 118.945312 139.800781 C 129.324219 128.757812 137.351562 121.96875 150.652344 115.453125 C 168.863281 114.421875 213.125 110.640625 221.804688 109.226562 C 228.601562 108.09375 205.476562 103.5625 195.199219 101.582031 C 199.722656 101.109375 204.351562 100.824219 209.066406 100.824219 C 228.972656 100.824219 248.410156 105.546875 265.964844 114.699219 Z M 265.964844 114.699219 " fill-opacity="1" fill-rule="evenodd"/><path fill="#2097b2" d="M 85.726562 246.523438 L 136.59375 189.714844 C 139.234375 186.792969 143.476562 186.792969 146.03125 189.714844 L 160.375 205.757812 L 198.117188 163.582031 C 200.761719 160.75 204.914062 160.75 207.5625 163.582031 L 222.746094 180.566406 L 228.890625 173.675781 C 231.527344 170.75 235.6875 170.75 238.324219 173.675781 L 260.972656 198.960938 L 269.285156 189.707031 C 271.921875 186.785156 276.167969 186.785156 278.722656 189.707031 L 329.679688 246.515625 C 292.402344 238.398438 251.074219 233.875 207.660156 233.875 C 164.242188 233.882812 123.003906 238.40625 85.726562 246.523438 Z M 85.726562 246.523438 " fill-opacity="1" fill-rule="evenodd"/><path fill="#ffffff" d="M 144.609375 190.941406 L 160.367188 208.488281 L 173.292969 225.757812 C 170.277344 223.40625 163.007812 215.757812 156.59375 210.289062 C 154.324219 208.398438 150.265625 215.574219 149.039062 212.742188 C 147.820312 209.816406 142.058594 193.867188 139.324219 189.902344 C 141.117188 188.960938 143.199219 189.339844 144.609375 190.941406 Z M 144.609375 190.941406 " fill-opacity="1" fill-rule="evenodd"/><g clip-path="url(#854abc19ac)"><path fill="#073260" d="M 89.316406 245.296875 L 133.097656 196.136719 C 133.285156 195.949219 129.980469 206.515625 132.628906 206.136719 C 135.082031 205.757812 136.871094 199.347656 137.628906 202.078125 C 139.519531 209.347656 145.550781 217.550781 148.476562 224.441406 C 149.617188 227.273438 154.046875 212.171875 156.222656 214.0625 C 159.332031 216.699219 161.125 218.210938 166.789062 222.933594 C 168.015625 223.96875 157.820312 222.363281 159.046875 223.40625 C 161.03125 225.011719 169.335938 229.539062 173.476562 231.332031 C 175.460938 232.179688 177.730469 233.121094 179.898438 233.96875 C 181.316406 233.96875 182.730469 233.875 184.242188 233.785156 L 175.460938 225.382812 L 161.59375 207.171875 L 194.621094 170.277344 C 195.191406 169.808594 190.375 183.203125 193.207031 184.058594 C 195.285156 184.722656 202.554688 175.277344 202.832031 177.457031 C 203.964844 184.722656 204.25 191.042969 204.8125 201.800781 C 204.90625 204.253906 209.160156 187.832031 209.722656 190.195312 C 211.226562 196.515625 215 210.675781 217.359375 218.128906 C 217.925781 219.925781 211.980469 216.523438 212.554688 218.21875 C 214.058594 222.75 230.957031 231.53125 231.050781 231.902344 C 225.578125 226.523438 223.308594 224.632812 221.519531 220.203125 C 218.6875 212.933594 221.042969 205.296875 223.695312 205.203125 C 228.972656 205.019531 234.542969 209.640625 240.964844 215.867188 C 242.664062 217.65625 233.980469 215.109375 235.773438 217.09375 C 236.90625 218.21875 241.15625 219.640625 244.074219 221.53125 C 249.359375 225.027344 260.210938 228.328125 262.570312 230.589844 L 247.285156 217.1875 L 224.167969 181.800781 C 225.015625 180.765625 226.242188 180.285156 228.601562 180.386719 C 229.832031 180.480469 231.628906 179.34375 233.226562 181.234375 C 238.039062 187.371094 244.359375 199.539062 249.273438 205.394531 C 251.820312 208.503906 251.636719 196.992188 253.898438 199.824219 C 258.046875 205.019531 265.03125 214.078125 269.746094 219.363281 C 270.59375 220.304688 262.109375 214.925781 262.949219 215.867188 C 264.554688 217.65625 268.992188 222.277344 271.816406 224.363281 C 275.964844 227.378906 282.199219 228.421875 283.042969 228.984375 L 273.984375 219.175781 L 262.378906 200.210938 L 267 195.117188 C 267.378906 194.738281 267.378906 201.722656 270.496094 202.855469 C 272.378906 203.613281 273.898438 196.160156 275.300781 198.613281 C 280.402344 208.042969 289.371094 224.183594 293.421875 232.203125 C 295.304688 235.789062 302.386719 239.371094 302.765625 239.839844 L 297.386719 231.066406 L 296.621094 219.085938 L 325.882812 245.21875 C 339.464844 248.144531 352.589844 251.445312 365.136719 255.320312 C 317.007812 244.65625 263.789062 238.714844 207.636719 238.714844 C 151.585938 238.714844 98.265625 244.664062 50.242188 255.320312 C 62.703125 251.53125 75.726562 248.128906 89.316406 245.296875 Z M 89.316406 245.296875 " fill-opacity="1" fill-rule="evenodd"/></g><path fill="#ffffff" d="M 215.761719 205.011719 C 215.007812 196.515625 201.796875 163.867188 204.722656 163.203125 L 220.769531 182.824219 L 242.285156 213.683594 C 235.957031 208.398438 227.652344 199.714844 221.804688 200.378906 C 219.445312 200.566406 217.277344 201.984375 215.761719 205.011719 Z M 215.761719 205.011719 " fill-opacity="1" fill-rule="evenodd"/><path fill="#ffffff" d="M 248.511719 200.09375 C 245.964844 196.976562 236.621094 179.992188 232.746094 173.488281 C 234.257812 173.203125 235.765625 173.675781 236.898438 174.992188 L 260.964844 201.792969 L 265.117188 209.429688 C 260.496094 204.332031 257.191406 200.558594 253.320312 196.40625 C 250.863281 193.773438 251.050781 203.210938 248.511719 200.09375 Z M 248.511719 200.09375 " fill-opacity="1" fill-rule="evenodd"/><path fill="#ffffff" d="M 293.050781 226.800781 C 291.914062 225.574219 281.539062 201.230469 274.082031 189.339844 C 275.21875 189.339844 276.445312 189.902344 277.386719 190.941406 L 308.621094 225.851562 L 294.847656 214.625 Z M 293.050781 226.800781 " fill-opacity="1" fill-rule="evenodd"/><g clip-path="url(#cc83492e3b)"><path fill="#073260" d="M 207.644531 243.035156 C 156.125 243.035156 107.90625 248.414062 66.953125 257.851562 C 109.886719 250.675781 157.542969 246.617188 207.644531 246.617188 C 257.847656 246.617188 305.410156 250.675781 348.4375 257.851562 C 307.480469 248.414062 259.269531 243.035156 207.644531 243.035156 Z M 207.644531 243.035156 " fill-opacity="1" fill-rule="evenodd"/></g><g clip-path="url(#2d1cf628a6)"><path fill="#073260" d="M 102.917969 145.933594 C 101.777344 146.589844 100.652344 147.160156 99.515625 147.816406 C 99.988281 148.765625 100.558594 149.890625 101.214844 151.210938 C 101.777344 149.523438 102.257812 147.816406 102.917969 145.933594 Z M 91.683594 153.574219 C 89.046875 155.933594 86.683594 158.664062 84.515625 161.691406 C 83.859375 160.1875 83.195312 158.765625 82.542969 157.253906 C 82.632812 161.121094 80.742188 163.582031 80.835938 167.539062 C 78.859375 171.976562 75.558594 177.261719 73.382812 181.792969 C 79.886719 197.925781 87.625 212.554688 94.140625 224.539062 C 92.339844 198.496094 92.15625 183.683594 98.953125 159.152344 C 96.5 157.160156 94.046875 155.179688 91.683594 153.574219 Z M 72.8125 180.277344 C 71.113281 158.386719 77.617188 151.027344 88.1875 146.027344 L 86.019531 138.851562 L 85.265625 138.851562 L 84.121094 146.304688 L 75.820312 138 C 75.257812 138.566406 74.601562 139.035156 73.9375 139.605469 C 69.878906 140.832031 65.535156 141.589844 61.484375 142.816406 C 64.039062 155.75 68.097656 168.386719 72.8125 180.277344 Z M 96.5 142.722656 C 98.097656 142.058594 99.800781 141.496094 101.5 140.832031 C 99.425781 140.363281 96.398438 139.984375 94.046875 139.515625 C 94.894531 140.648438 95.742188 141.78125 96.5 142.722656 Z M 93.289062 138.574219 C 93.769531 137.4375 94.792969 136.304688 95.085938 135.078125 C 94.046875 135.832031 93.011719 136.488281 92.070312 137.152344 C 92.441406 137.625 92.910156 138.101562 93.289062 138.574219 Z M 61.398438 142.347656 C 63.097656 140.457031 68.003906 135.269531 72.339844 131.496094 L 70.734375 127.53125 C 69.792969 128.941406 68.945312 130.261719 68.003906 131.589844 C 65.457031 130.453125 61.867188 129.320312 59.414062 128.285156 C 59.792969 133 60.542969 137.625 61.398438 142.347656 Z M 83.753906 127.910156 C 90.929688 129.605469 101.398438 134.042969 101.398438 134.042969 C 101.398438 134.042969 101.308594 120.546875 102.726562 118.664062 C 104.230469 116.875 104.800781 117.816406 106.59375 118.949219 C 108.382812 119.984375 113.199219 123.949219 113.199219 123.949219 C 111.113281 124.234375 109.046875 124.511719 106.972656 124.707031 C 107.347656 125.839844 108.191406 125.460938 108.566406 126.589844 C 108.003906 128.195312 107.0625 131.117188 106.492188 132.816406 C 106.492188 132.816406 113.761719 125.078125 119.324219 122.714844 C 124.886719 120.355469 129.046875 122.246094 132.15625 123.277344 C 135.273438 124.320312 146.878906 131.773438 146.878906 131.773438 C 146.878906 131.773438 134.046875 130.355469 132.066406 130.734375 C 130.082031 131.109375 123.570312 128.09375 123.570312 128.09375 C 124.511719 129.699219 126.113281 129.976562 127.148438 131.683594 C 123.652344 132.714844 121.300781 133.851562 117.90625 134.800781 C 116.398438 133.949219 113.097656 134.421875 111.585938 133.574219 C 112.339844 135.175781 114.324219 134.421875 114.980469 135.933594 C 112.996094 136.691406 109.796875 139.800781 107.8125 140.464844 C 107.8125 140.464844 122.628906 148.582031 124.703125 151.882812 C 126.777344 155.1875 131.125 166.421875 131.410156 168.960938 C 131.785156 171.503906 133.003906 185.472656 133.003906 185.472656 C 129.425781 181.605469 126.121094 175.378906 122.535156 171.414062 C 122.914062 166.699219 123.097656 164.246094 123.476562 159.429688 C 122.15625 161.414062 120.835938 163.394531 119.519531 165.371094 C 117.914062 162.253906 116.308594 159.144531 114.703125 155.933594 C 114.601562 153.574219 114.601562 151.210938 114.515625 148.859375 C 113.382812 149.515625 112.25 150.269531 111.113281 150.933594 C 109.417969 149.523438 106.871094 147.816406 105.074219 146.3125 C 104.222656 149.050781 103.476562 151.875 102.8125 154.613281 C 105.449219 160.1875 108.289062 166.128906 108.289062 166.128906 C 106.121094 164.808594 103.855469 163.019531 101.585938 161.21875 C 96.769531 189.625 102.914062 218.96875 105.367188 235.480469 L 100.550781 236.136719 C 101.207031 237.464844 101.964844 238.683594 102.625 239.910156 C 99.132812 241.894531 95.644531 243.785156 92.148438 245.761719 C 70.15625 197.917969 61.667969 180.363281 56.761719 128.65625 C 50.726562 136.296875 46.382812 145.171875 44.5 155.742188 C 43.078125 154.136719 41.667969 152.625 40.253906 151.019531 C 42.230469 155.832031 41.382812 159.699219 43.371094 164.515625 C 43.371094 171.3125 42.238281 179.894531 42.238281 186.691406 C 23.179688 147.625 36.203125 138.941406 52.808594 122.808594 C 49.886719 122.992188 45.726562 124.035156 42.902344 124.320312 C 42.617188 122.429688 43.371094 120.070312 43.085938 118.1875 C 41.667969 120.453125 40.449219 122.429688 39.121094 124.699219 C 35.441406 126.304688 30.539062 128.664062 26.953125 130.261719 C 27.054688 127.246094 27.238281 124.226562 27.332031 121.203125 C 25.449219 124.699219 24.3125 128.851562 22.429688 132.335938 C 18.464844 135.734375 13.84375 138.472656 9.875 141.867188 C 9.875 141.867188 16.859375 118.371094 21.480469 115.160156 C 26.113281 111.859375 49.414062 114.3125 49.414062 114.3125 C 49.414062 114.3125 42.816406 97.421875 43.472656 94.496094 C 44.136719 91.574219 45.269531 92.613281 47.71875 93.269531 C 50.171875 93.933594 57.246094 96.949219 57.246094 96.949219 C 55.171875 98.085938 53.003906 99.21875 50.925781 100.347656 C 51.867188 101.574219 52.625 100.816406 53.566406 102.042969 C 53.75 104.210938 54.128906 108.363281 54.324219 110.632812 C 54.324219 110.632812 58.472656 98.078125 63.289062 92.890625 C 68.195312 87.699219 73.574219 88.363281 77.441406 88.453125 C 81.304688 88.546875 97.449219 93.175781 97.449219 93.175781 C 97.449219 93.175781 82.917969 96.574219 80.9375 97.800781 C 78.953125 99.027344 70.457031 97.890625 70.457031 97.890625 C 72.339844 99.589844 74.230469 99.3125 76.019531 101.007812 C 72.820312 103.648438 70.835938 106.007812 67.625 108.648438 C 65.542969 108.179688 62.238281 110.070312 60.171875 109.589844 C 61.777344 111.289062 63.472656 109.496094 64.980469 111.195312 C 63.179688 112.894531 61.207031 118.085938 59.414062 119.785156 C 59.414062 119.785156 79.324219 123.933594 83.1875 127.328125 C 83.382812 127.53125 83.566406 127.722656 83.753906 127.910156 Z M 83.753906 127.910156 " fill-opacity="1" fill-rule="evenodd"/></g><path fill="#073260" d="M 170.570312 68.460938 L 167.453125 60.722656 L 170.652344 59.117188 C 171.789062 58.554688 174.898438 59.496094 175.839844 60.058594 L 183.671875 64.589844 L 201.21875 55.242188 L 190.277344 49.292969 L 143.847656 36.746094 L 146.394531 33.066406 C 146.394531 33.066406 146.957031 32.125 149.695312 31.269531 L 193.855469 34.480469 L 202.921875 28.816406 C 204.335938 27.964844 206.503906 28.90625 207.824219 30.984375 C 208.863281 32.589844 208.957031 34.378906 208.300781 35.511719 L 236.234375 37.589844 L 258.984375 25.699219 C 259.925781 25.128906 263.320312 21.546875 268.226562 20.035156 C 273.605469 18.429688 273.890625 19.378906 277.191406 19.65625 C 281.628906 20.035156 287.007812 18.429688 288.328125 22.773438 C 291.445312 33.058594 246.429688 54.671875 244.832031 55.144531 L 248.980469 55.050781 L 247.5625 65.152344 C 248.605469 65.335938 249.546875 66.09375 250.210938 67.320312 C 251.152344 69.019531 250.964844 71 249.730469 71.664062 L 246.527344 73.546875 L 244.644531 87.605469 C 244.359375 90.246094 243.132812 91.285156 241.621094 91.949219 L 237.183594 93.742188 L 230.679688 72.414062 L 219.351562 67.21875 C 218.410156 67.503906 212.929688 70.246094 201.039062 73.917969 C 187.257812 78.070312 183.300781 78.640625 182.359375 79.019531 L 182.832031 86.1875 C 182.929688 87.414062 179.8125 89.019531 178.964844 88.449219 L 168.964844 81.085938 C 167.542969 81.554688 163.863281 82.21875 163.492188 81.085938 C 163.015625 79.480469 163.402344 78.734375 164.054688 78.070312 L 144.804688 68.632812 C 144.617188 68.539062 144.527344 68.445312 144.527344 68.347656 L 144.527344 68.253906 C 144.242188 67.210938 146.886719 64.949219 150.089844 65.515625 L 169.054688 68.253906 C 169.621094 68.371094 170.089844 68.371094 170.570312 68.460938 Z M 170.570312 68.460938 " fill-opacity="1" fill-rule="evenodd"/><g fill="#073260" fill-opacity="1"><g transform="translate(139.691661, 316.693837)"><g><path d="M 19.21875 0 L 19.4375 -0.859375 C 20.25 -5.367188 19.046875 -9.085938 15.828125 -12.015625 C 12.617188 -14.953125 8.253906 -16.539062 2.734375 -16.78125 L 1.515625 -24.765625 C 3.867188 -25.441406 5.785156 -26.078125 7.265625 -26.671875 C 8.753906 -27.273438 10.363281 -28.007812 12.09375 -28.875 C 8.59375 -28.25 5.796875 -28.5625 3.703125 -29.8125 C 1.617188 -31.0625 0.578125 -32.910156 0.578125 -35.359375 C 0.578125 -36.410156 0.816406 -37.367188 1.296875 -38.234375 C 1.773438 -39.097656 2.613281 -39.960938 3.8125 -40.828125 L -0.5 -40.828125 L -1.65625 -48.3125 L 12.3125 -48.3125 C 16.15625 -48.3125 19.367188 -47.675781 21.953125 -46.40625 C 24.546875 -45.132812 26.539062 -43.203125 27.9375 -40.609375 C 28.75 -43.148438 29.992188 -45.066406 31.671875 -46.359375 C 33.359375 -47.660156 35.445312 -48.3125 37.9375 -48.3125 L 40.109375 -48.3125 L 41.25 -40.828125 L 39.390625 -40.828125 C 38.234375 -40.828125 37.28125 -40.394531 36.53125 -39.53125 C 35.789062 -38.664062 35.226562 -37.34375 34.84375 -35.5625 L 27.5 0 Z M 22.109375 -26.203125 C 20.617188 -25.148438 19.1875 -24.25 17.8125 -23.5 C 16.445312 -22.757812 14.925781 -22.03125 13.25 -21.3125 C 15.3125 -20.207031 17.035156 -18.632812 18.421875 -16.59375 C 19.816406 -14.550781 20.753906 -12.164062 21.234375 -9.4375 L 27.078125 -37.15625 C 26.210938 -38.644531 25.070312 -39.628906 23.65625 -40.109375 C 22.238281 -40.585938 20.1875 -40.828125 17.5 -40.828125 L 16.484375 -40.828125 C 14.753906 -40.828125 13.21875 -40.320312 11.875 -39.3125 C 10.53125 -38.300781 9.859375 -37.078125 9.859375 -35.640625 C 9.859375 -34.535156 10.191406 -33.671875 10.859375 -33.046875 C 11.535156 -32.421875 12.425781 -32.109375 13.53125 -32.109375 C 14.394531 -32.109375 15.1875 -32.226562 15.90625 -32.46875 C 16.625 -32.707031 17.414062 -33.09375 18.28125 -33.625 Z M 22.109375 -26.203125 "/></g></g></g><g fill="#073260" fill-opacity="1"><g transform="translate(190.523658, 309.493833)"><g><path d="M -20.65625 28.796875 C -21.425781 26.972656 -22.503906 25.253906 -23.890625 23.640625 C -25.285156 22.035156 -26.875 20.660156 -28.65625 19.515625 C -30.1875 21.628906 -31.925781 23.304688 -33.875 24.546875 C -35.820312 25.796875 -37.828125 26.421875 -39.890625 26.421875 C -42.523438 26.421875 -44.753906 25.601562 -46.578125 23.96875 C -48.398438 22.34375 -49.3125 20.425781 -49.3125 18.21875 C -49.3125 16.195312 -48.492188 14.46875 -46.859375 13.03125 C -45.234375 11.59375 -43.242188 10.875 -40.890625 10.875 C -39.648438 10.875 -38.351562 11.015625 -37 11.296875 C -35.65625 11.585938 -34.289062 12.019531 -32.90625 12.59375 C -32.664062 11.832031 -32.4375 10.992188 -32.21875 10.078125 C -32 9.171875 -31.796875 8.210938 -31.609375 7.203125 L -31.03125 4.390625 L -22.75 4.390625 L -23.328125 7.203125 C -23.660156 8.785156 -24.09375 10.332031 -24.625 11.84375 C -25.15625 13.351562 -25.78125 14.757812 -26.5 16.0625 C -23.957031 17.832031 -21.75 19.738281 -19.875 21.78125 C -18 23.820312 -17.0625 25.320312 -17.0625 26.28125 C -17.0625 27.050781 -17.394531 27.660156 -18.0625 28.109375 C -18.738281 28.566406 -19.601562 28.796875 -20.65625 28.796875 Z M -40.890625 22.609375 C -39.546875 22.609375 -38.332031 22.148438 -37.25 21.234375 C -36.175781 20.328125 -35.234375 18.863281 -34.421875 16.84375 C -35.285156 16.601562 -36.160156 16.410156 -37.046875 16.265625 C -37.929688 16.128906 -38.832031 16.0625 -39.75 16.0625 C -41.09375 16.0625 -42.160156 16.382812 -42.953125 17.03125 C -43.742188 17.675781 -44.140625 18.523438 -44.140625 19.578125 C -44.140625 20.441406 -43.8125 21.160156 -43.15625 21.734375 C -42.507812 22.316406 -41.753906 22.609375 -40.890625 22.609375 Z M -40.890625 22.609375 "/></g></g></g><g fill="#073260" fill-opacity="1"><g transform="translate(180.803642, 316.693837)"><g><path d="M -1.578125 0 L 5.328125 -32.609375 C 5.566406 -33.617188 5.796875 -34.566406 6.015625 -35.453125 C 6.234375 -36.347656 6.460938 -37.175781 6.703125 -37.9375 C 6.078125 -39 5.234375 -39.742188 4.171875 -40.171875 C 3.117188 -40.609375 1.753906 -40.828125 0.078125 -40.828125 L -0.5 -40.828125 L -1.65625 -48.3125 L -1.015625 -48.3125 C 1.242188 -48.3125 3.09375 -47.6875 4.53125 -46.4375 C 5.976562 -45.1875 7.035156 -43.269531 7.703125 -40.6875 C 8.234375 -41.976562 8.820312 -43.09375 9.46875 -44.03125 C 10.113281 -44.96875 10.820312 -45.722656 11.59375 -46.296875 C 9.332031 -48.410156 7.640625 -50.4375 6.515625 -52.375 C 5.390625 -54.320312 4.828125 -56.207031 4.828125 -58.03125 C 4.828125 -61.195312 6.15625 -63.773438 8.8125 -65.765625 C 11.476562 -67.765625 14.878906 -68.765625 19.015625 -68.765625 C 24.671875 -68.765625 29.992188 -67.726562 34.984375 -65.65625 C 39.984375 -63.59375 45.003906 -60.304688 50.046875 -55.796875 C 51.097656 -54.890625 51.503906 -54.003906 51.265625 -53.140625 C 51.023438 -52.273438 50.304688 -51.84375 49.109375 -51.84375 C 46.316406 -54.4375 42.484375 -56.488281 37.609375 -58 C 32.742188 -59.507812 27.835938 -60.265625 22.890625 -60.265625 C 19.296875 -60.265625 16.550781 -59.722656 14.65625 -58.640625 C 12.757812 -57.566406 11.8125 -56.046875 11.8125 -54.078125 C 11.8125 -53.253906 11.929688 -52.492188 12.171875 -51.796875 C 12.410156 -51.109375 13.320312 -49.800781 14.90625 -47.875 C 15.476562 -48.019531 16.078125 -48.128906 16.703125 -48.203125 C 17.328125 -48.273438 18 -48.3125 18.71875 -48.3125 L 19.296875 -48.3125 L 20.453125 -40.828125 L 19.375 -40.828125 C 17.6875 -40.828125 16.398438 -40.128906 15.515625 -38.734375 C 14.628906 -37.335938 13.753906 -34.457031 12.890625 -30.09375 L 6.703125 0 Z M -1.578125 0 "/></g></g></g><g fill="#073260" fill-opacity="1"><g transform="translate(201.107634, 316.693837)"><g><path d="M 17.859375 0.71875 C 11.566406 0.71875 6.753906 -1.847656 3.421875 -6.984375 C 0.0859375 -12.117188 -1.578125 -19.296875 -1.578125 -28.515625 C -1.578125 -30.765625 -1.3125 -32.453125 -0.78125 -33.578125 C -0.257812 -34.710938 0.523438 -35.28125 1.578125 -35.28125 C 2.203125 -35.28125 2.789062 -35.144531 3.34375 -34.875 C 3.894531 -34.613281 4.390625 -34.242188 4.828125 -33.765625 C 4.203125 -32.515625 3.753906 -31.289062 3.484375 -30.09375 C 3.222656 -28.894531 3.09375 -27.597656 3.09375 -26.203125 C 3.09375 -20.347656 4.253906 -15.929688 6.578125 -12.953125 C 8.910156 -9.984375 12.429688 -8.453125 17.140625 -8.359375 C 20.878906 -8.359375 23.984375 -9.601562 26.453125 -12.09375 C 28.929688 -14.59375 30.050781 -17.59375 29.8125 -21.09375 C 28.75 -19.363281 27.445312 -18.039062 25.90625 -17.125 C 24.375 -16.21875 22.75 -15.765625 21.03125 -15.765625 C 17.332031 -15.816406 14.398438 -17.242188 12.234375 -20.046875 C 10.078125 -22.859375 9.382812 -26.28125 10.15625 -30.3125 L 11.234375 -35.859375 C 11.273438 -36.140625 11.332031 -36.410156 11.40625 -36.671875 C 11.476562 -36.941406 11.539062 -37.195312 11.59375 -37.4375 C 10.539062 -38.925781 9.484375 -39.863281 8.421875 -40.25 C 7.367188 -40.632812 5.929688 -40.828125 4.109375 -40.828125 L -0.5 -40.828125 L -1.65625 -48.3125 L 0.796875 -48.3125 C 3.484375 -48.3125 5.796875 -47.675781 7.734375 -46.40625 C 9.679688 -45.132812 11.351562 -43.15625 12.75 -40.46875 C 13.988281 -43.101562 15.90625 -45.066406 18.5 -46.359375 C 21.09375 -47.660156 24.3125 -48.3125 28.15625 -48.3125 L 37.21875 -48.3125 L 38.375 -40.828125 L 30.171875 -40.828125 C 27.140625 -40.828125 24.84375 -40.359375 23.28125 -39.421875 C 21.726562 -38.484375 20.566406 -36.835938 19.796875 -34.484375 C 18.503906 -30.546875 17.738281 -28 17.5 -26.84375 C 17.257812 -25.695312 17.140625 -24.691406 17.140625 -23.828125 C 17.140625 -23.160156 17.28125 -22.617188 17.5625 -22.203125 C 17.851562 -21.796875 18.265625 -21.59375 18.796875 -21.59375 C 19.703125 -21.59375 20.835938 -22.273438 22.203125 -23.640625 C 23.578125 -25.015625 25.941406 -27.882812 29.296875 -32.25 C 30.835938 -30.382812 31.976562 -28.332031 32.71875 -26.09375 C 33.46875 -23.863281 33.863281 -21.332031 33.90625 -18.5 C 33.863281 -12.457031 32.398438 -7.742188 29.515625 -4.359375 C 26.640625 -0.972656 22.753906 0.71875 17.859375 0.71875 Z M 11.515625 4.75 C 12.910156 4.75 14.109375 5.265625 15.109375 6.296875 C 16.117188 7.328125 16.625 8.515625 16.625 9.859375 C 16.625 11.253906 16.117188 12.453125 15.109375 13.453125 C 14.109375 14.460938 12.910156 14.96875 11.515625 14.96875 C 10.128906 14.96875 8.929688 14.460938 7.921875 13.453125 C 6.910156 12.453125 6.40625 11.253906 6.40625 9.859375 C 6.40625 8.515625 6.921875 7.328125 7.953125 6.296875 C 8.984375 5.265625 10.171875 4.75 11.515625 4.75 Z M 11.515625 4.75 "/></g></g></g><g fill="#073260" fill-opacity="1"><g transform="translate(239.347904, 316.693837)"><g/></g></g></svg>